<svg width="507" height="68" viewBox="0 0 507 68" fill="none" xmlns="http://www.w3.org/2000/svg">
<path d="M490.853 25.488C493.445 25.488 495.813 25.712 497.957 26.16C500.101 26.576 501.893 27.056 503.333 27.6C504.805 28.144 505.749 28.592 506.165 28.944L501.413 37.536C500.805 37.088 499.669 36.512 498.005 35.808C496.373 35.104 494.549 34.752 492.533 34.752C490.997 34.752 489.701 34.992 488.645 35.472C487.589 35.92 487.061 36.64 487.061 37.632C487.061 38.624 487.637 39.424 488.789 40.032C489.973 40.608 491.669 41.12 493.877 41.568C495.797 41.952 497.749 42.56 499.733 43.392C501.717 44.224 503.365 45.456 504.677 47.088C506.021 48.688 506.693 50.832 506.693 53.52C506.693 56.272 506.101 58.544 504.917 60.336C503.733 62.128 502.165 63.52 500.213 64.512C498.261 65.504 496.149 66.192 493.877 66.576C491.605 66.992 489.397 67.2 487.253 67.2C484.245 67.2 481.621 66.928 479.381 66.384C477.173 65.84 475.381 65.216 474.005 64.512C472.629 63.808 471.669 63.248 471.125 62.832L475.829 53.232C476.661 53.936 478.021 54.736 479.909 55.632C481.797 56.496 483.797 56.928 485.909 56.928C487.957 56.928 489.541 56.624 490.661 56.016C491.781 55.408 492.341 54.608 492.341 53.616C492.341 52.816 492.069 52.176 491.525 51.696C490.981 51.216 490.213 50.8 489.221 50.448C488.229 50.096 487.029 49.776 485.621 49.488C484.341 49.232 482.981 48.832 481.541 48.288C480.101 47.744 478.741 47.008 477.461 46.08C476.181 45.12 475.141 43.92 474.341 42.48C473.541 41.04 473.141 39.296 473.141 37.248C473.141 34.624 473.989 32.448 475.685 30.72C477.381 28.992 479.573 27.696 482.261 26.832C484.949 25.936 487.813 25.488 490.853 25.488Z" fill="#121C22"/>
<path d="M449.577 66.048V59.664C449.289 60.304 448.553 61.232 447.369 62.448C446.217 63.664 444.681 64.768 442.761 65.76C440.841 66.72 438.601 67.2 436.041 67.2C432.201 67.2 428.841 66.272 425.961 64.416C423.081 62.528 420.841 60.016 419.241 56.88C417.641 53.712 416.841 50.208 416.841 46.368C416.841 42.528 417.641 39.04 419.241 35.904C420.841 32.736 423.081 30.208 425.961 28.32C428.841 26.432 432.201 25.488 436.041 25.488C438.505 25.488 440.665 25.888 442.521 26.688C444.377 27.456 445.881 28.384 447.033 29.472C448.185 30.528 448.985 31.504 449.433 32.4V26.64H463.929V66.048H449.577ZM431.145 46.368C431.145 48.16 431.561 49.776 432.393 51.216C433.225 52.624 434.329 53.728 435.705 54.528C437.113 55.328 438.665 55.728 440.361 55.728C442.121 55.728 443.673 55.328 445.017 54.528C446.361 53.728 447.417 52.624 448.185 51.216C448.985 49.776 449.385 48.16 449.385 46.368C449.385 44.576 448.985 42.976 448.185 41.568C447.417 40.128 446.361 39.008 445.017 38.208C443.673 37.376 442.121 36.96 440.361 36.96C438.665 36.96 437.113 37.376 435.705 38.208C434.329 39.008 433.225 40.128 432.393 41.568C431.561 42.976 431.145 44.576 431.145 46.368Z" fill="#121C22"/>
<path d="M409.593 66.048H394.953V0H409.593V66.048Z" fill="#121C22"/>
<path d="M356.766 26.64H363.486V10.464H377.934V26.64H386.766V38.64H377.934V49.632C377.934 51.264 378.174 52.592 378.654 53.616C379.134 54.608 380.014 55.104 381.294 55.104C382.158 55.104 382.894 54.912 383.502 54.528C384.11 54.144 384.478 53.888 384.606 53.76L389.598 64.128C389.374 64.32 388.67 64.672 387.486 65.184C386.334 65.696 384.862 66.16 383.07 66.576C381.278 66.992 379.278 67.2 377.07 67.2C373.134 67.2 369.886 66.096 367.326 63.888C364.766 61.648 363.486 58.208 363.486 53.568V38.64H356.766V26.64Z" fill="#121C22"/>
<path d="M315.747 2.688H330.003L355.011 66.048H339.699L335.091 53.328H310.707L306.051 66.048H290.691L315.747 2.688ZM315.507 40.752H330.339L322.995 19.968H322.851L315.507 40.752Z" fill="#121C22"/>
<path d="M254.278 25.488C257.03 25.488 259.718 26.048 262.342 27.168C264.966 28.288 267.126 30.064 268.822 32.496C270.518 34.896 271.366 38.064 271.366 42V66.048H256.726V44.4C256.726 41.584 256.054 39.472 254.71 38.064C253.366 36.624 251.606 35.904 249.43 35.904C247.99 35.904 246.63 36.288 245.35 37.056C244.102 37.792 243.078 38.848 242.278 40.224C241.51 41.568 241.126 43.12 241.126 44.88V66.048H226.534V26.64H241.126V32.448C241.51 31.392 242.31 30.336 243.526 29.28C244.774 28.192 246.326 27.296 248.182 26.592C250.07 25.856 252.102 25.488 254.278 25.488Z" fill="#FC5220"/>
<path d="M188.388 44.88C188.388 48.016 188.98 50.528 190.164 52.416C191.348 54.272 193.332 55.2 196.116 55.2C198.964 55.2 200.964 54.272 202.116 52.416C203.3 50.528 203.892 48.016 203.892 44.88V26.64H218.292V46.416C218.292 50.64 217.412 54.32 215.652 57.456C213.924 60.56 211.412 62.96 208.116 64.656C204.82 66.352 200.82 67.2 196.116 67.2C191.444 67.2 187.46 66.352 184.164 64.656C180.868 62.96 178.356 60.56 176.628 57.456C174.9 54.32 174.036 50.64 174.036 46.416V26.64H188.388V44.88Z" fill="#FC5220"/>
<path d="M149.919 66.048V26.64H164.511V66.048H149.919ZM157.407 18.528C155.103 18.528 153.151 17.728 151.551 16.128C149.951 14.496 149.151 12.56 149.151 10.32C149.151 8.07999 149.951 6.14399 151.551 4.51199C153.183 2.84799 155.135 2.01599 157.407 2.01599C158.911 2.01599 160.287 2.39999 161.535 3.16799C162.783 3.90399 163.791 4.89599 164.559 6.144C165.327 7.39199 165.711 8.78399 165.711 10.32C165.711 12.56 164.895 14.496 163.263 16.128C161.631 17.728 159.679 18.528 157.407 18.528Z" fill="#FC5220"/>
<path d="M124.72 66.048H110.128V26.64H124.72V32.736H124.48C124.736 32 125.36 31.072 126.352 29.952C127.344 28.8 128.737 27.776 130.529 26.88C132.321 25.952 134.512 25.488 137.104 25.488C138.928 25.488 140.609 25.776 142.145 26.352C143.681 26.896 144.801 27.424 145.505 27.936L139.84 39.792C139.392 39.248 138.593 38.688 137.441 38.112C136.321 37.504 134.913 37.2 133.217 37.2C131.265 37.2 129.648 37.696 128.368 38.688C127.12 39.68 126.192 40.88 125.584 42.288C125.008 43.696 124.72 45.024 124.72 46.272V66.048Z" fill="#FC5220"/>
<path d="M86.658 66.048H72.066V26.64H86.658V32.736H86.418C86.674 32 87.298 31.072 88.29 29.952C89.282 28.8 90.674 27.776 92.466 26.88C94.258 25.952 96.45 25.488 99.042 25.488C100.866 25.488 102.546 25.776 104.082 26.352C105.618 26.896 106.738 27.424 107.442 27.936L101.778 39.792C101.33 39.248 100.53 38.688 99.378 38.112C98.258 37.504 96.85 37.2 95.154 37.2C93.202 37.2 91.586 37.696 90.306 38.688C89.058 39.68 88.13 40.88 87.522 42.288C86.946 43.696 86.658 45.024 86.658 46.272V66.048Z" fill="#FC5220"/>
<path d="M14.928 34.32C14.928 37.936 15.664 41.216 17.136 44.16C18.64 47.072 20.704 49.392 23.328 51.12C25.984 52.848 29.056 53.712 32.544 53.712C36.032 53.712 39.088 52.848 41.712 51.12C44.368 49.392 46.432 47.072 47.904 44.16C49.408 41.216 50.16 37.936 50.16 34.32C50.16 30.704 49.408 27.44 47.904 24.528C46.432 21.616 44.368 19.296 41.712 17.568C39.088 15.808 36.032 14.928 32.544 14.928C29.056 14.928 25.984 15.808 23.328 17.568C20.704 19.296 18.64 21.616 17.136 24.528C15.664 27.44 14.928 30.704 14.928 34.32ZM0 34.32C0 29.712 0.816 25.424 2.448 21.456C4.08 17.456 6.368 13.968 9.312 10.992C12.256 8.016 15.712 5.696 19.68 4.032C23.648 2.368 27.936 1.536 32.544 1.536C37.216 1.536 41.52 2.368 45.456 4.032C49.424 5.696 52.864 8.016 55.776 10.992C58.72 13.968 60.992 17.456 62.592 21.456C64.224 25.424 65.04 29.712 65.04 34.32C65.04 38.96 64.256 43.28 62.688 47.28C61.12 51.248 58.88 54.736 55.968 57.744C53.056 60.72 49.616 63.04 45.648 64.704C41.68 66.368 37.312 67.2 32.544 67.2C27.68 67.2 23.248 66.368 19.248 64.704C15.28 63.04 11.856 60.72 8.976 57.744C6.096 54.736 3.872 51.248 2.304 47.28C0.768 43.28 0 38.96 0 34.32Z" fill="#FC5220"/>
</svg>
